<svg id="Layer_1" data-name="Layer 1" xmlns="http://www.w3.org/2000/svg" viewBox="0 0 313 380.02"><defs><style>.cls-1{fill:#fff;}</style></defs><title>logo_icon_w</title><path class="cls-1" d="M353.22,106.35c-24.32-65.56-122.89-68.8-127.08-68.9H178l-1.07.23c-.85.19-21,4.67-43.12,19.11C104.32,76.05,85.32,104,78.83,137.69c-.81,3.5-6.35,30.51,7.12,61l-29.3,35L56,235.34c-1.51,4.15-8.58,25.54,0,38.76,2.6,4,7.67,8.93,17,9.59l7.47,0V330.3l.28,1.18c3.31,13.62,17.83,39.16,49.23,39.15h.87a202.11,202.11,0,0,0,30-2.82v38.76a12,12,0,0,0,11.35,10.89H323.44V347.67c.15-3.21,2.63-47.79,19-88.15C358.22,220.82,377.81,172.64,353.22,106.35ZM323.66,251.87C305.34,296.93,303.21,345,303.12,347v50.12H181.26V363.5c8.14-2.11,13.25-3.9,13.75-4.08a10.16,10.16,0,0,0-6.8-19.15c-.27.1-27.42,9.59-57.59,10h-.55c-20.82,0-27.72-17.76-29.21-22.62V263.4H74.24a2.84,2.84,0,0,1-1.07-.26c-1.7-1.56-1.24-10.87,1.43-19.28l35.49-42.37-3.15-6c-14.29-27.31-8.37-53-8.32-53.17l.12-.56c5.43-28.39,20.76-51.12,45.57-67.55a126.09,126.09,0,0,1,36-16.42h45.46c3.49.12,89.15,3.67,108.44,55.66C354.45,168.08,342.6,205.28,323.66,251.87Z" transform="translate(-51.87 -37.44)"/><path class="cls-1" d="M272.8,97.56C250.24,77,210.12,83.64,208.41,83.94l-.67.14c-1.45.35-35.7,9-50.41,43.55-14.27,33.56-8.06,54.57,7.49,79.53a264.63,264.63,0,0,1,16.55,31,17.31,17.31,0,0,0-6.44,13.46V269.3a17.32,17.32,0,0,0,16.59,17.28c0,.14,0,.28,0,.42v8.72a20.73,20.73,0,0,0,20.7,20.7h27.85a20.73,20.73,0,0,0,20.7-20.7V287c0-.14,0-.28,0-.42a17.32,17.32,0,0,0,16.59-17.28V251.59a17.32,17.32,0,0,0-7.52-14.27c3-11.43,13-27.29,19.52-35.78l.42-.54.34-.6c14.86-25.92,13.17-42.65,12.2-47.48C299.09,117.82,277.75,101,272.8,97.56ZM240.43,295.72a.38.38,0,0,1-.38.38H212.2a.38.38,0,0,1-.38-.38V287a.38.38,0,0,1,.38-.38h27.85a.38.38,0,0,1,.38.38ZM257,266.3H195.25V254.59H257Zm15.77-76.57c-3.4,4.49-18.88,25.69-23.14,44.54H233.77v-44.6a29.51,29.51,0,1,0-7.64-49.09,30.1,30.1,0,0,0-19.83-7.42,29.55,29.55,0,1,0,12.18,56.51v44.6H201.87a278,278,0,0,0-19.81-37.86c-12.85-20.62-17-35-6-60.82,10.14-23.83,33.26-30.87,36.21-31.69,9.37-1.49,34.95-2.65,47.23,9l.76.72.88.55c.19.11,18.58,12.27,21,41.13L282,156l.4,1.11C282.64,158.6,284,170,272.78,189.73Zm-36.47-27a9.64,9.64,0,1,1,9.64,9.23A9.45,9.45,0,0,1,236.31,162.71Zm-20.37,0a9.64,9.64,0,1,1-9.64-9.23A9.45,9.45,0,0,1,215.94,162.71Z" transform="translate(-51.87 -37.44)"/></svg>